<svg id="Layer_1" data-name="Layer 1" xmlns="http://www.w3.org/2000/svg" viewBox="0 0 100 100"><title>icons</title><path d="M1,94.92A3.86,3.86,0,0,0,5.08,99H66V34H1V94.92Zm44.92-49a8.17,8.17,0,1,1-8.17,8.17A8.19,8.19,0,0,1,45.92,45.92Zm0,24.5a8.17,8.17,0,1,1-8.17,8.17A8.19,8.19,0,0,1,45.92,70.42Zm-24.5-24.5a8.17,8.17,0,1,1-8.17,8.17A8.19,8.19,0,0,1,21.42,45.92Zm0,24.5a8.17,8.17,0,1,1-8.17,8.17A8.19,8.19,0,0,1,21.42,70.42ZM99,6.72v63.7a4,4,0,0,1-1.48,2.86L74,96.55V31.22ZM93.28,1L68.78,26H3.45L26.73,2.48A4,4,0,0,1,29.58,1h63.7Z" fill="#bec7cc"/></svg>